<svg width="960" height="640" viewBox="0 0 960 640" fill="none" xmlns="http://www.w3.org/2000/svg">
  <rect width="960" height="640" rx="28" fill="#F8FAFC"/>
  <rect x="88" y="98" width="784" height="444" rx="24" fill="white"/>
  <rect x="128" y="138" width="290" height="364" rx="16" fill="#DCFCE7"/>
  <rect x="442" y="138" width="390" height="170" rx="16" fill="#DBEAFE"/>
  <rect x="442" y="332" width="390" height="170" rx="16" fill="#FEF3C7"/>
  <circle cx="212" cy="236" r="48" fill="#86EFAC"/>
  <circle cx="332" cy="236" r="48" fill="#BBF7D0"/>
  <rect x="170" y="318" width="210" height="12" rx="6" fill="#4ADE80"/>
  <rect x="170" y="342" width="162" height="10" rx="5" fill="#86EFAC"/>
  <rect x="482" y="170" width="120" height="12" rx="6" fill="#93C5FD"/>
  <rect x="482" y="196" width="252" height="10" rx="5" fill="#BFDBFE"/>
  <rect x="482" y="222" width="292" height="10" rx="5" fill="#BFDBFE"/>
  <rect x="482" y="362" width="120" height="12" rx="6" fill="#FCD34D"/>
  <rect x="482" y="388" width="252" height="10" rx="5" fill="#FDE68A"/>
  <rect x="482" y="414" width="292" height="10" rx="5" fill="#FDE68A"/>
</svg>
