<svg width="960" height="640" viewBox="0 0 960 640" fill="none" xmlns="http://www.w3.org/2000/svg">
  <rect width="960" height="640" rx="28" fill="#F8FAFC"/>
  <rect x="72" y="84" width="816" height="472" rx="24" fill="#E2E8F0"/>
  <rect x="116" y="130" width="520" height="322" rx="18" fill="white"/>
  <rect x="664" y="130" width="180" height="150" rx="16" fill="#DBEAFE"/>
  <rect x="664" y="302" width="180" height="150" rx="16" fill="#FEF3C7"/>
  <rect x="142" y="160" width="212" height="16" rx="8" fill="#CBD5E1"/>
  <rect x="142" y="194" width="142" height="12" rx="6" fill="#E2E8F0"/>
  <rect x="142" y="236" width="468" height="170" rx="12" fill="#F1F5F9"/>
  <path d="M182 360L256 304L330 336L406 264L482 296L556 250" stroke="#2563EB" stroke-width="10" stroke-linecap="round" stroke-linejoin="round"/>
  <circle cx="182" cy="360" r="10" fill="#2563EB"/>
  <circle cx="256" cy="304" r="10" fill="#2563EB"/>
  <circle cx="330" cy="336" r="10" fill="#2563EB"/>
  <circle cx="406" cy="264" r="10" fill="#2563EB"/>
  <circle cx="482" cy="296" r="10" fill="#2563EB"/>
  <circle cx="556" cy="250" r="10" fill="#2563EB"/>
  <rect x="690" y="160" width="128" height="12" rx="6" fill="#93C5FD"/>
  <rect x="690" y="186" width="94" height="10" rx="5" fill="#BFDBFE"/>
  <rect x="690" y="334" width="128" height="12" rx="6" fill="#FCD34D"/>
  <rect x="690" y="360" width="104" height="10" rx="5" fill="#FDE68A"/>
</svg>
