<svg width="960" height="640" viewBox="0 0 960 640" fill="none" xmlns="http://www.w3.org/2000/svg">
  <rect width="960" height="640" rx="28" fill="#F8FAFC"/>
  <rect x="84" y="92" width="792" height="456" rx="24" fill="white"/>
  <rect x="124" y="132" width="500" height="376" rx="16" fill="#E2E8F0"/>
  <rect x="646" y="132" width="190" height="110" rx="14" fill="#DBEAFE"/>
  <rect x="646" y="262" width="190" height="110" rx="14" fill="#DCFCE7"/>
  <rect x="646" y="392" width="190" height="110" rx="14" fill="#FEF3C7"/>
  <rect x="160" y="172" width="428" height="16" rx="8" fill="#94A3B8"/>
  <rect x="160" y="202" width="240" height="10" rx="5" fill="#CBD5E1"/>
  <rect x="160" y="242" width="428" height="236" rx="12" fill="#F8FAFC"/>
  <path d="M202 420L278 340L356 372L432 304L510 334L548 286" stroke="#2563EB" stroke-width="10" stroke-linecap="round" stroke-linejoin="round"/>
  <circle cx="202" cy="420" r="8" fill="#2563EB"/>
  <circle cx="278" cy="340" r="8" fill="#2563EB"/>
  <circle cx="356" cy="372" r="8" fill="#2563EB"/>
  <circle cx="432" cy="304" r="8" fill="#2563EB"/>
  <circle cx="510" cy="334" r="8" fill="#2563EB"/>
  <circle cx="548" cy="286" r="8" fill="#2563EB"/>
</svg>
